<svg width="400" height="804" viewBox="0 0 400 804" fill="none" xmlns="http://www.w3.org/2000/svg">
<rect width="360" height="780" transform="translate(20)" fill="white"/>
<rect x="20" width="360" height="780" fill="url(#paint0_radial_3619_18708)" fill-opacity="0.9"/>
<rect x="20" width="360" height="780" fill="url(#paint1_radial_3619_18708)"/>
<g filter="url(#filter0_d_3619_18708)">
<rect x="20" y="115" width="360" height="665" rx="30" fill="white"/>
</g>
<rect width="360" height="44" transform="translate(20 736)" fill="#E0E0E0"/>
<path d="M293 763V751C293 750.448 293.448 750 294 750H306C306.552 750 307 750.448 307 751V763C307 763.552 306.552 764 306 764H294C293.448 764 293 763.552 293 763Z" stroke="#878C96" stroke-opacity="0.87" stroke-width="2"/>
<path d="M207 757C207 760.866 203.866 764 200 764C196.134 764 193 760.866 193 757C193 753.134 196.134 750 200 750C203.866 750 207 753.134 207 757Z" stroke="#878C96" stroke-opacity="0.87" stroke-width="2"/>
<g clip-path="url(#clip0_3619_18708)">
<path d="M105 750.715V762.287C105 763.057 104.166 763.538 103.5 763.153L93.4904 757.367C92.8244 756.982 92.8244 756.02 93.4904 755.635L103.5 749.849C104.166 749.464 105 749.945 105 750.715Z" stroke="#878C96" stroke-opacity="0.87" stroke-width="2"/>
</g>
<defs>
<filter id="filter0_d_3619_18708" x="0" y="99" width="400" height="705" filterUnits="userSpaceOnUse" color-interpolation-filters="sRGB">
<feFlood flood-opacity="0" result="BackgroundImageFix"/>
<feColorMatrix in="SourceAlpha" type="matrix" values="0 0 0 0 0 0 0 0 0 0 0 0 0 0 0 0 0 0 127 0" result="hardAlpha"/>
<feOffset dy="4"/>
<feGaussianBlur stdDeviation="10"/>
<feColorMatrix type="matrix" values="0 0 0 0 0 0 0 0 0 0 0 0 0 0 0 0 0 0 0.15 0"/>
<feBlend mode="normal" in2="BackgroundImageFix" result="effect1_dropShadow_3619_18708"/>
<feBlend mode="normal" in="SourceGraphic" in2="effect1_dropShadow_3619_18708" result="shape"/>
</filter>
<radialGradient id="paint0_radial_3619_18708" cx="0" cy="0" r="1" gradientUnits="userSpaceOnUse" gradientTransform="translate(211 780) rotate(-103.759) scale(803.045 690.868)">
<stop stop-color="#BB0038"/>
<stop offset="0.446561" stop-color="#BB0038" stop-opacity="0.553439"/>
<stop offset="1" stop-color="#BB0038" stop-opacity="0"/>
</radialGradient>
<radialGradient id="paint1_radial_3619_18708" cx="0" cy="0" r="1" gradientUnits="userSpaceOnUse" gradientTransform="translate(200) rotate(77.0054) scale(800.5 372.262)">
<stop stop-color="#0070AF"/>
<stop offset="1" stop-color="#0070AF" stop-opacity="0"/>
</radialGradient>
<clipPath id="clip0_3619_18708">
<rect width="14" height="16" fill="white" transform="translate(92 749)"/>
</clipPath>
</defs>
</svg>
